<svg id="a8c8e042-6c2b-4852-ad06-8a1d34c506c3" data-name="圖層 1" xmlns="http://www.w3.org/2000/svg" viewBox="0 0 111.94 101.02">
  <defs>
    <style>
      .b2c94280-0097-444f-8222-e3cb60e308e8 {
        fill: #231815;
      }
    </style>
  </defs>
  <title>logo</title>
  <path class="b2c94280-0097-444f-8222-e3cb60e308e8" d="M44.3,23.93a13.2,13.2,0,0,0-2-4.9,20.26,20.26,0,0,0-3.26-4l.5-.44q5.72.38,8.66,2.52a5,5,0,0,1,2.39,4.14,3.37,3.37,0,0,1-1.95,3.14A4.16,4.16,0,0,1,44.3,23.93Zm3.2,34.72q-2.69,0-3.32-3.2a41.86,41.86,0,0,0,.63-8.7c-.13-2.53-.55-4-1.26-4.55a5.56,5.56,0,0,0-3.2-1V40h2.82a2.14,2.14,0,0,0,1.07-.19,3.15,3.15,0,0,0,.82-1.13q1.32-2.26,12.24-25.49l.94.19q-6.27,20.08-7,23.29a23.35,23.35,0,0,0-.88,5.72,13,13,0,0,0,1.07,3.89,17.55,17.55,0,0,1,1.44,7.16,5.11,5.11,0,0,1-1.57,3.79A5.26,5.26,0,0,1,47.5,58.65ZM50,10.55a18.23,18.23,0,0,0-2.63-5.09,26,26,0,0,0-3.64-4.14l.5-.44c3.93.13,7,.88,9.1,2.26A5.21,5.21,0,0,1,56,7.29a3.48,3.48,0,0,1-1.69,3.39A4.19,4.19,0,0,1,50,10.55Zm3.14,48.22-.56-.56A22.47,22.47,0,0,0,60,47.16a40.28,40.28,0,0,0,1.51-11.81V28.13l8.72.88c-.12.84-.81,1.34-2.07,1.51v5A29,29,0,0,1,65.34,48.1C62.86,52.87,58.79,56.43,53.09,58.77Zm41.38-32q-1.81,1.38-4.4-.12a26.83,26.83,0,0,0-3.19-5.84q-9.81,2.57-25.06,5.77A2.25,2.25,0,0,1,60,27.88l-3-8.35q5.46,0,9.48-.06c1.17-3.23,2.24-6.36,3.2-9.42H57.11l-.5-1.82H71.68V0L81,.76c-.12,1-.89,1.55-2.32,1.75V8.23h8.73l3.83-5.15c.84.67,1.65,1.36,2.45,2.07Q96.48,7.54,98.11,9c-.17.67-.75,1-1.76,1H78.27q-3.33,4.33-7.72,9.35l8.92-.18L85.56,19a51.07,51.07,0,0,0-5.4-6l.56-.44A27.79,27.79,0,0,1,91.9,17.08a9.47,9.47,0,0,1,3.89,5.59A3.84,3.84,0,0,1,94.47,26.75ZM72.06,56V28.07l8.41.82c-.13.75-.77,1.21-2,1.38V54.19c0,.29-.58.67-1.76,1.13a9.85,9.85,0,0,1-3.51.69Zm16.76,1.38c-2.22,0-3.66-.42-4.33-1.25s-.88-2.29-.88-4.59V27.13l8.73.82q0,1.38-1.83,1.56v20c0,.67.28,1,.82,1h1a4.65,4.65,0,0,0,1-.06c.38,0,.69-.25.94-.75.38-.88,1.19-3.85,2.45-8.92h.69l.19,9.36a3.9,3.9,0,0,1,1.51,1.25,3.85,3.85,0,0,1,.31,1.7q0,4.34-7.85,4.33Z" transform="translate(4 0.29)"/>
  <path class="b2c94280-0097-444f-8222-e3cb60e308e8" d="M43.2,94.23l-.62-.76a46.94,46.94,0,0,0,11.7-15.74,72.34,72.34,0,0,0,5.89-19.09H44.84l-.62-2H59.69l4.11-4.24,7.25,6.3a3.54,3.54,0,0,1-2.66,1.09Q62.63,84.18,43.2,94.23Zm25.11,6.5C68,97.94,67.4,96,66.4,94.91q-2-2.05-7-2.87v-1l10.13.55c1.09,0,1.64-.44,1.64-1.3V36.6l10.67,1.1c-.22,1-1,1.62-2.46,1.85v7a64.08,64.08,0,0,0,6.3,18.69,103.5,103.5,0,0,0,11.22-17l9.45,5.95c-.46.78-1.37,1.05-2.74.82a111.34,111.34,0,0,1-17,12,48.84,48.84,0,0,0,21.28,19l-.34.76a7.86,7.86,0,0,0-4.31,2.46A11.13,11.13,0,0,0,100.62,94,52.11,52.11,0,0,1,87.2,77.8q-5.4-10.26-7.8-26.35V90.87c0,3.2-.62,5.45-1.85,6.78Q75.15,100.19,68.31,100.73Z" transform="translate(4 0.29)"/>
  <path class="b2c94280-0097-444f-8222-e3cb60e308e8" d="M1.57,32.77Q.43,28.6-4,24.3l.51-.44c3.75.17,6.62.92,8.6,2.27a4.86,4.86,0,0,1,2.46,4,3.18,3.18,0,0,1-1.83,3A4,4,0,0,1,1.57,32.77ZM19.9,59.07v-18a79.89,79.89,0,0,1-9.17,2.53l-.38-.82A69.69,69.69,0,0,0,30.64,30.81a32.72,32.72,0,0,1-4.73-7.46,40.19,40.19,0,0,1-11.77,9.29l-.57-.57a36.45,36.45,0,0,0,6.58-8.78A48.39,48.39,0,0,0,24.58,12.8l6.63,1.57V8.94H19.83v4.55c0,.3-.59.61-1.77.95a15.07,15.07,0,0,1-4.23.57h-1.2V8.94H-3.3l-.44-1.77H12.63V-.29l9.42.82q-.19,1.4-2.22,1.71V7.17H31.21V-.29l9.55.82c-.08.93-.82,1.5-2.21,1.71V7.17h6.32l3.73-5,2.4,2C52.85,5.71,54.29,7,55.3,7.93c-.17.67-.74,1-1.71,1h-15v4.23c0,.3-.57.62-1.71.95a15.15,15.15,0,0,1-4.11.63l1.08.26c-.17.67-1,1-2.34.88-.38.63-1,1.58-1.83,2.85H39.81L44,14.88l6.39,5.94c-.42.55-1.33.85-2.72.89a43.79,43.79,0,0,1-9.23,9.54,66.29,66.29,0,0,0,17.89,5.12l-.06.7c-2.82.72-4.64,2.78-5.44,6.19a20.42,20.42,0,0,1-2-.69l-.57-.19a3.14,3.14,0,0,1-1.89,1v13.4c0,.26-.77.59-2.15,1a13.47,13.47,0,0,1-3.86.7H39.12V55H26.91v1.9c0,.34-.5.76-1.51,1.26a9.65,9.65,0,0,1-4.24.89ZM4.47,58.94c-1.68,0-2.78-1-3.28-2.9a38,38,0,0,0,.57-7.34c-.13-2-.55-3.24-1.27-3.67a7.79,7.79,0,0,0-3.16-.88V43h3a3,3,0,0,0,1.14-.13,3,3,0,0,0,1-1Q4,39.67,16.23,19.75l.95.25-3.29,7.71Q9.22,38.33,8.71,40a15.7,15.7,0,0,0-1.14,5.24,7.89,7.89,0,0,0,1,3.17A12.73,12.73,0,0,1,10,54.33a4.59,4.59,0,0,1-1.58,3.35A5.79,5.79,0,0,1,4.47,58.94ZM7,23A31,31,0,0,0,.74,14.31l.57-.38C5.06,14,8,14.71,10,16a4.86,4.86,0,0,1,2.72,3.85A3.2,3.2,0,0,1,11.17,23,4,4,0,0,1,7,23ZM27.8,40.74H38.61l1.83-1.9a37.94,37.94,0,0,1-6.32-4.49,67.34,67.34,0,0,1-9.86,5.06Zm5.5-12.4a38.19,38.19,0,0,0,6.32-7.83H28.31l-.38.5a10.52,10.52,0,0,1-1,1.27A25.19,25.19,0,0,0,33.3,28.34ZM26.91,53.25H39.12V42.57H26.91Z" transform="translate(4 0.29)"/>
  <path class="b2c94280-0097-444f-8222-e3cb60e308e8" d="M9.87,100V72.28A61.83,61.83,0,0,1-3.31,81.54L-4,80.79A66.31,66.31,0,0,0,5.4,69a85.93,85.93,0,0,0,7.76-15.37L23.73,57.8c-.42,1-1.38,1.35-2.88,1.16a79.39,79.39,0,0,1-5.91,8.1l4.87,1.79c-.23.68-.94,1.12-2.12,1.3V98.08c-.05.27-.74.66-2.06,1.17a13.74,13.74,0,0,1-4.32.75Zm4.66-46.32V46.4H-2.76l-.48-1.92H14.53V35.91l10.23,1c-.1,1-.9,1.62-2.41,1.85v5.76H34.71V35.91l10.43,1c-.1,1-.89,1.62-2.41,1.85v5.76h6.73l4.12-5.56,2.67,2.27c2,1.69,3.57,3.06,4.67,4.12-.14.73-.78,1.09-1.92,1.09H42.73v5.15c0,.37-.66.76-2,1.17a17.45,17.45,0,0,1-4.73.62h-1.3V46.4H22.35v5.49q0,.55-2,1.17a16.31,16.31,0,0,1-4.53.62ZM38.68,98.56q-5.48,0-7.41-1.51t-1.92-5.9v-37l10.23,1c-.09,1-.85,1.6-2.27,1.78V73.72A84.43,84.43,0,0,0,50,57.93l9.33,6.45c-.59.83-1.69,1-3.29.55A66.76,66.76,0,0,1,37.31,75.78V89.09a1.6,1.6,0,0,0,.59,1.47,4.77,4.77,0,0,0,2.36.38h6.59c3,0,4.87,0,5.56-.07a2.57,2.57,0,0,0,2-1q1-1.78,3.29-9.53h.69l.21,9.94a5.79,5.79,0,0,1,2.33,1.45,2.93,2.93,0,0,1,.62,1.92q0,2.67-3.16,3.77Q55,98.56,46.1,98.56Z" transform="translate(4 0.29)"/>
</svg>
